<mxfile host="app.diagrams.net" modified="2020-09-08T02:02:48.830Z" agent="5.0 (Windows NT 10.0; Win64; x64) AppleWebKit/537.36 (KHTML, like Gecko) Chrome/84.0.4147.105 Safari/537.36" etag="KGMyH4yI-z-BDdmH-gA7" version="13.6.6" type="github">
  <diagram id="i6GMAmQRyc4KmQYqqA-w" name="Page-1">
    <mxGraphModel dx="785" dy="507" grid="1" gridSize="10" guides="1" tooltips="1" connect="1" arrows="1" fold="1" page="1" pageScale="1" pageWidth="827" pageHeight="1169" math="0" shadow="0">
      <root>
        <mxCell id="0" />
        <mxCell id="1" parent="0" />
        <mxCell id="RtMm6UV42Vjop_dnID7e-2" value="" style="endArrow=classic;html=1;" edge="1" parent="1">
          <mxGeometry width="50" height="50" relative="1" as="geometry">
            <mxPoint x="360" y="130" as="sourcePoint" />
            <mxPoint x="360" y="180" as="targetPoint" />
            <Array as="points">
              <mxPoint x="360" y="160" />
            </Array>
          </mxGeometry>
        </mxCell>
        <mxCell id="RtMm6UV42Vjop_dnID7e-3" value="摄像头获取实时图像" style="whiteSpace=wrap;html=1;" vertex="1" parent="1">
          <mxGeometry x="300" y="90" width="120" height="40" as="geometry" />
        </mxCell>
        <mxCell id="RtMm6UV42Vjop_dnID7e-8" style="edgeStyle=orthogonalEdgeStyle;orthogonalLoop=1;jettySize=auto;html=1;exitX=1;exitY=0.5;exitDx=0;exitDy=0;" edge="1" parent="1" source="RtMm6UV42Vjop_dnID7e-5">
          <mxGeometry relative="1" as="geometry">
            <mxPoint x="500" y="290" as="targetPoint" />
          </mxGeometry>
        </mxCell>
        <mxCell id="RtMm6UV42Vjop_dnID7e-5" value="模式选择" style="rhombus;whiteSpace=wrap;html=1;" vertex="1" parent="1">
          <mxGeometry x="305" y="180" width="110" height="50" as="geometry" />
        </mxCell>
        <mxCell id="RtMm6UV42Vjop_dnID7e-18" value="" style="edgeStyle=orthogonalEdgeStyle;orthogonalLoop=1;jettySize=auto;html=1;" edge="1" parent="1" source="RtMm6UV42Vjop_dnID7e-10" target="RtMm6UV42Vjop_dnID7e-17">
          <mxGeometry relative="1" as="geometry" />
        </mxCell>
        <mxCell id="RtMm6UV42Vjop_dnID7e-10" value="目标检测" style="shape=ext;html=1;whiteSpace=wrap;" vertex="1" parent="1">
          <mxGeometry x="310" y="290" width="100" height="50" as="geometry" />
        </mxCell>
        <mxCell id="RtMm6UV42Vjop_dnID7e-12" value="" style="endArrow=classic;html=1;entryX=0.5;entryY=0;entryDx=0;entryDy=0;fontStyle=1;" edge="1" parent="1" target="RtMm6UV42Vjop_dnID7e-10">
          <mxGeometry width="50" height="50" relative="1" as="geometry">
            <mxPoint x="359.5" y="230" as="sourcePoint" />
            <mxPoint x="359.5" y="280" as="targetPoint" />
            <Array as="points">
              <mxPoint x="360" y="260" />
            </Array>
          </mxGeometry>
        </mxCell>
        <mxCell id="RtMm6UV42Vjop_dnID7e-13" value="自动跟踪模式" style="text;html=1;align=center;verticalAlign=middle;resizable=0;points=[];autosize=1;" vertex="1" parent="1">
          <mxGeometry x="360" y="240" width="90" height="20" as="geometry" />
        </mxCell>
        <mxCell id="RtMm6UV42Vjop_dnID7e-14" value="遥控模式&lt;br&gt;（内网穿透）" style="text;html=1;align=center;verticalAlign=middle;resizable=0;points=[];autosize=1;" vertex="1" parent="1">
          <mxGeometry x="485" y="215" width="90" height="30" as="geometry" />
        </mxCell>
        <mxCell id="RtMm6UV42Vjop_dnID7e-26" value="" style="edgeStyle=orthogonalEdgeStyle;rounded=0;orthogonalLoop=1;jettySize=auto;html=1;fontSize=11;" edge="1" parent="1" source="RtMm6UV42Vjop_dnID7e-16" target="RtMm6UV42Vjop_dnID7e-25">
          <mxGeometry relative="1" as="geometry" />
        </mxCell>
        <mxCell id="RtMm6UV42Vjop_dnID7e-16" value="web遥控" style="shape=ext;html=1;whiteSpace=wrap;" vertex="1" parent="1">
          <mxGeometry x="450" y="290" width="110" height="40" as="geometry" />
        </mxCell>
        <mxCell id="RtMm6UV42Vjop_dnID7e-20" value="" style="edgeStyle=orthogonalEdgeStyle;orthogonalLoop=1;jettySize=auto;html=1;" edge="1" parent="1" source="RtMm6UV42Vjop_dnID7e-17" target="RtMm6UV42Vjop_dnID7e-19">
          <mxGeometry relative="1" as="geometry" />
        </mxCell>
        <mxCell id="RtMm6UV42Vjop_dnID7e-22" value="" style="edgeStyle=orthogonalEdgeStyle;orthogonalLoop=1;jettySize=auto;html=1;" edge="1" parent="1" source="RtMm6UV42Vjop_dnID7e-17" target="RtMm6UV42Vjop_dnID7e-21">
          <mxGeometry relative="1" as="geometry" />
        </mxCell>
        <mxCell id="RtMm6UV42Vjop_dnID7e-17" value="判断目标位置" style="rhombus;whiteSpace=wrap;html=1;" vertex="1" parent="1">
          <mxGeometry x="140" y="370" width="90" height="70" as="geometry" />
        </mxCell>
        <mxCell id="RtMm6UV42Vjop_dnID7e-19" value="小车横向调整" style="whiteSpace=wrap;html=1;" vertex="1" parent="1">
          <mxGeometry x="321" y="385" width="94" height="40" as="geometry" />
        </mxCell>
        <mxCell id="RtMm6UV42Vjop_dnID7e-21" value="小车纵向调整" style="whiteSpace=wrap;html=1;" vertex="1" parent="1">
          <mxGeometry x="137.5" y="480" width="95" height="40" as="geometry" />
        </mxCell>
        <mxCell id="RtMm6UV42Vjop_dnID7e-23" value="测量目标顶部&lt;br&gt;与图像上沿的距离" style="text;html=1;align=center;verticalAlign=middle;resizable=0;points=[];autosize=1;fontSize=11;spacingTop=0;spacingLeft=0;" vertex="1" parent="1">
          <mxGeometry x="45" y="435" width="100" height="30" as="geometry" />
        </mxCell>
        <mxCell id="RtMm6UV42Vjop_dnID7e-24" value="判断目标中心点&lt;br&gt;与图像左右边缘的距离" style="text;html=1;align=center;verticalAlign=middle;resizable=0;points=[];autosize=1;fontSize=11;" vertex="1" parent="1">
          <mxGeometry x="210" y="425" width="130" height="30" as="geometry" />
        </mxCell>
        <mxCell id="RtMm6UV42Vjop_dnID7e-25" value="回传图像" style="rounded=1;whiteSpace=wrap;html=1;fontSize=11;" vertex="1" parent="1">
          <mxGeometry x="462.5" y="385" width="85" height="35" as="geometry" />
        </mxCell>
      </root>
    </mxGraphModel>
  </diagram>
</mxfile>
